<?xml version="1.0" encoding="utf-8"?>
<!-- Generator: Adobe Illustrator 17.0.0, SVG Export Plug-In . SVG Version: 6.00 Build 0)  -->
<!DOCTYPE svg PUBLIC "-//W3C//DTD SVG 1.1//EN" "http://www.w3.org/Graphics/SVG/1.1/DTD/svg11.dtd">
<svg version="1.1" id="Слой_1" xmlns="http://www.w3.org/2000/svg" xmlns:xlink="http://www.w3.org/1999/xlink" x="0px" y="0px"
	 width="396.578px" height="453.045px" viewBox="0 0 396.578 453.045" enable-background="new 0 0 396.578 453.045"
	 xml:space="preserve">
<path fill="#201600" d="M365.474,22.144c-6.686,0-12.113,6.337-23.994,20.224c-18.265,21.322-48.839,57.047-80.533,57.047H136.234
	c-31.709,0-62.265-35.725-80.533-57.047C43.808,28.482,38.393,22.144,31.707,22.144c-12.792,0-17.912,10.834-18.238,18.41v390.832
	h370.227V40.239C383.37,32.978,378.251,22.144,365.474,22.144z M368.887,375.679l-169.62,27.644
	c-0.726,0.118-1.457,0.118-2.183-0.003L28.278,375.69L28.263,39.696c0.163-2.106,0.844-3.406,2.056-3.866
	c2.779,2.221,8.675,9.086,13.511,14.739c19.997,23.338,53.449,62.422,92.294,62.422h124.933c38.832,0,72.297-39.084,92.297-62.422
	c4.832-5.624,10.717-12.518,13.511-14.739c1.461,0.549,1.92,2.28,2.023,3.462v336.387H368.887z"/>
<path fill="#201600" d="M229.732,259.848l-64.037-0.003c-5.542,0-8.319,6.835-4.398,10.837l26.508,27.042
	c5.473,5.583,14.347,5.583,19.819,0l26.505-27.042C238.051,266.683,235.274,259.848,229.732,259.848z"/>
</svg>
