<svg xmlns="http://www.w3.org/2000/svg" viewBox="0 0 64 64">
  <defs>
    <style>
      .cls-1 {
        fill: #ffcb2a;
      }
    </style>
  </defs>
  <g id="Слой_2" data-name="Слой 2">
    <g id="Слой_1-2" data-name="Слой 1">
      <path d="M60.25,64H3.75A3.75,3.75,0,0,1,0,60.25V3.75A3.75,3.75,0,0,1,3.75,0h56.5A3.75,3.75,0,0,1,64,3.75v56.5A3.75,3.75,0,0,1,60.25,64ZM3.75,1.5A2.25,2.25,0,0,0,1.5,3.75v56.5A2.25,2.25,0,0,0,3.75,62.5h56.5a2.25,2.25,0,0,0,2.25-2.25V3.75A2.25,2.25,0,0,0,60.25,1.5Z"/>
      <circle cx="4.92" cy="6.02" r="0.83"/>
      <circle cx="8.42" cy="6.02" r="0.83"/>
      <circle cx="11.93" cy="6.02" r="0.83"/>
      <rect y="9.57" width="64" height="1.5"/>
      <path class="cls-1" d="M32,22.23a14.52,14.52,0,0,0-6.17,1.38.66.66,0,0,0-.19.09,15,15,0,0,0-2.91,1.87.67.67,0,0,0-.25.22A14.54,14.54,0,1,0,32,22.23ZM32,50a13.2,13.2,0,0,1-9.63-22.24v9a9.63,9.63,0,1,0,10-9.62.7.7,0,0,0-.47.2.6.6,0,0,0-.2.47v6a.71.71,0,0,0,.6.67,2.32,2.32,0,1,1-2.66,2.28v-13A12.86,12.86,0,0,1,32,23.58,13.21,13.21,0,1,1,32,50Zm0-9.53a3.66,3.66,0,0,0,1.07-7.16V31.6a5.29,5.29,0,1,1-6.35,5.18V24.68a12.85,12.85,0,0,1,1.61-.58V36.78A3.64,3.64,0,0,0,32,40.46Zm0,2.95a6.63,6.63,0,0,0,1.07-13.18V28.57a8.28,8.28,0,1,1-9.35,8.21V26.51a12.42,12.42,0,0,1,1.65-1.14V36.78A6.64,6.64,0,0,0,32,43.41Z"/>
    </g>
  </g>
</svg>
