<svg xmlns="http://www.w3.org/2000/svg" viewBox="0 0 64 63.98">
  <defs>
    <style>
      .cls-1 {
        fill: none;
      }

      .cls-2 {
        fill: #ffcb2a;
      }
    </style>
  </defs>
  <g id="Слой_2" data-name="Слой 2">
    <g id="Слой_1-2" data-name="Слой 1">
      <path class="cls-1" d="M60.25,13.65h-9.9V3.75a3,3,0,0,0-3-3H3.75a3,3,0,0,0-3,3v44a3,3,0,0,0,3,3h10.6v9.48a3,3,0,0,0,3,3h42.9a3,3,0,0,0,3-3V16.65A3,3,0,0,0,60.25,13.65Z"/>
      <path d="M60.25,12.9H51.1V3.75A3.75,3.75,0,0,0,47.35,0H3.75A3.75,3.75,0,0,0,0,3.75v44A3.75,3.75,0,0,0,3.75,51.5H13.6v8.73A3.75,3.75,0,0,0,17.35,64h42.9A3.75,3.75,0,0,0,64,60.23V16.65A3.76,3.76,0,0,0,60.25,12.9ZM62.5,60.23a2.25,2.25,0,0,1-2.25,2.25H17.35a2.25,2.25,0,0,1-2.25-2.25V50H3.75A2.25,2.25,0,0,1,1.5,47.75v-44A2.25,2.25,0,0,1,3.75,1.5h43.6A2.25,2.25,0,0,1,49.6,3.75V14.4H60.25a2.25,2.25,0,0,1,2.25,2.25Z"/>
      <rect x="44.57" y="12.85" width="2.95" height="1.5"/>
      <rect x="39.65" y="12.85" width="2.95" height="1.5"/>
      <rect x="34.74" y="12.85" width="2.95" height="1.5"/>
      <rect x="29.82" y="12.85" width="2.95" height="1.5"/>
      <rect x="24.91" y="12.85" width="2.95" height="1.5"/>
      <rect x="19.99" y="12.85" width="2.95" height="1.5"/>
      <rect x="15.07" y="12.85" width="2.95" height="1.5"/>
      <rect x="46.66" y="48.52" width="2.95" height="1.5"/>
      <rect x="41.74" y="48.52" width="2.95" height="1.5"/>
      <rect x="36.83" y="48.52" width="2.95" height="1.5"/>
      <rect x="31.91" y="48.52" width="2.95" height="1.5"/>
      <rect x="26.99" y="48.52" width="2.95" height="1.5"/>
      <rect x="22.08" y="48.52" width="2.95" height="1.5"/>
      <rect x="17.16" y="48.52" width="2.95" height="1.5"/>
      <g>
        <rect x="13.57" y="15.52" width="1.5" height="2.95"/>
        <rect x="13.57" y="20.44" width="1.5" height="2.95"/>
        <rect x="13.57" y="25.35" width="1.5" height="2.95"/>
        <rect x="13.57" y="30.27" width="1.5" height="2.95"/>
        <rect x="13.57" y="35.18" width="1.5" height="2.95"/>
        <rect x="13.57" y="40.1" width="1.5" height="2.95"/>
        <rect x="13.57" y="45.01" width="1.5" height="2.95"/>
      </g>
      <g>
        <rect x="49.61" y="15.52" width="1.5" height="2.95"/>
        <rect x="49.61" y="20.44" width="1.5" height="2.95"/>
        <rect x="49.61" y="25.35" width="1.5" height="2.95"/>
        <rect x="49.61" y="30.27" width="1.5" height="2.95"/>
        <rect x="49.61" y="35.18" width="1.5" height="2.95"/>
        <rect x="49.61" y="40.1" width="1.5" height="2.95"/>
        <rect x="49.61" y="45.01" width="1.5" height="2.95"/>
      </g>
      <g>
        <path class="cls-2" d="M31.49,33.75A1.72,1.72,0,1,1,33.2,32h1.48a3.2,3.2,0,1,0-3.19,3.19H44.62V33.75Z"/>
        <path class="cls-2" d="M44.62,37.58V36H31.49a4,4,0,1,1,4-4h1.6a5.6,5.6,0,1,0-5.59,5.6Z"/>
        <polygon class="cls-2" points="20.92 37.58 20.92 30.09 19.38 30.09 19.38 28.55 22.35 28.55 22.35 37.58 20.92 37.58"/>
        <polygon class="cls-2" points="20.92 27.98 22.98 27.98 22.98 37.58 24.41 37.58 24.41 26.38 20.92 26.38 20.92 27.98"/>
      </g>
    </g>
  </g>
</svg>
