<svg xmlns="http://www.w3.org/2000/svg" viewBox="0 0 64 55.33">
  <defs>
    <style>
      .cls-1 {
        fill: none;
        stroke: #000;
        stroke-miterlimit: 10;
        stroke-width: 1.5px;
      }

      .cls-2 {
        fill: #ffcb2a;
      }
    </style>
  </defs>
  <g id="Слой_2" data-name="Слой 2">
    <g id="Слой_1-2" data-name="Слой 1">
      <path d="M58.6,31.26l-1.69-1.68a4.15,4.15,0,1,0-.85.85l1.68,1.69a.6.6,0,0,0,.86,0,.6.6,0,0,0,0-.86Zm-5-1.22a2.9,2.9,0,1,1,2.9-2.9A2.9,2.9,0,0,1,53.62,30Z"/>
      <line class="cls-1" x1="7" y1="24.16" x2="7" y2="31.17"/>
      <path d="M20.37,20a13.94,13.94,0,0,1,23.26,0h1.89a15.52,15.52,0,0,0-27,0Z"/>
      <path d="M9.5,19.91h1.74a21.94,21.94,0,0,1,2.2-4.35l.31-.47-2.52-3.51L15.83,7,19.34,9.5l.47-.31A22,22,0,0,1,27.5,6l.55-.11.7-4.26h6.5L36,5.89,36.5,6a22,22,0,0,1,7.69,3.19l.47.31L48.17,7l4.6,4.6-2.52,3.51.31.47a21.94,21.94,0,0,1,2.2,4.35H54.5a24.34,24.34,0,0,0-2.28-4.78L54.9,11.4,48.35,4.85,44.62,7.53a23.78,23.78,0,0,0-7.24-3L36.63,0H27.37l-.75,4.53a23.78,23.78,0,0,0-7.24,3L15.65,4.85,9.1,11.4l2.68,3.73A23.53,23.53,0,0,0,9.5,19.91Z"/>
      <path d="M43.57,35.41a14.76,14.76,0,0,1-1.68,2.05,14,14,0,0,1-19.78,0,14.76,14.76,0,0,1-1.68-2.05H18.52A15.86,15.86,0,0,0,21,38.61a15.63,15.63,0,0,0,22.08,0,15.86,15.86,0,0,0,2.44-3.2Z"/>
      <path d="M54.5,35.41H52.76a22.29,22.29,0,0,1-2.2,4.36l-.31.47,2.52,3.51-4.6,4.6-3.51-2.52-.47.31a22,22,0,0,1-7.69,3.19l-.55.11-.7,4.26h-6.5l-.7-4.26-.55-.11a22,22,0,0,1-7.69-3.19l-.47-.31-3.51,2.52-4.6-4.6,2.52-3.51-.31-.47a22.29,22.29,0,0,1-2.2-4.36H9.5a23.81,23.81,0,0,0,2.28,4.78L9.1,43.92l6.55,6.55,3.73-2.67a23.78,23.78,0,0,0,7.24,3l.75,4.53h9.26l.75-4.53a23.78,23.78,0,0,0,7.24-3l3.73,2.67,6.55-6.55-2.68-3.73A23.81,23.81,0,0,0,54.5,35.41Z"/>
      <path class="cls-2" d="M64,36.16H0v-17H64ZM1.5,34.66h61v-14H1.5Z"/>
    </g>
  </g>
</svg>
