<svg xmlns="http://www.w3.org/2000/svg" viewBox="0 0 56.47 56.47">
  <defs>
    <style>
      .cls-1 {
        fill: #ffcb2a;
      }
    </style>
  </defs>
  <g id="Слой_2" data-name="Слой 2">
    <g id="Слой_1-2" data-name="Слой 1">
      <g>
        <path d="M49.25,11.7a26.8,26.8,0,0,1-.31,33.47l1.12,1a28.29,28.29,0,0,0,.26-35.53Z"/>
        <path d="M11.3,7.53a26.8,26.8,0,0,1,33.47-.32l1.07-1.07A28.32,28.32,0,0,0,10.3,6.4Z"/>
        <path d="M45.17,48.94a26.8,26.8,0,0,1-33.47.31l-1.07,1.07a28.29,28.29,0,0,0,35.53-.26Z"/>
        <path d="M7.21,44.77A26.8,26.8,0,0,1,7.53,11.3l-1.13-1a28.32,28.32,0,0,0-.26,35.54Z"/>
      </g>
      <path d="M46.92,12.15a2.62,2.62,0,1,1,3.71,0A2.63,2.63,0,0,1,46.92,12.15ZM49.57,9.5a1.12,1.12,0,1,0,0,1.59A1.12,1.12,0,0,0,49.57,9.5Z"/>
      <path d="M8.05,9.67a2.63,2.63,0,1,1,3.71,0A2.64,2.64,0,0,1,8.05,9.67ZM10.7,7a1.12,1.12,0,1,0,0,1.59A1.12,1.12,0,0,0,10.7,7Z"/>
      <path d="M44.58,50.53a2.63,2.63,0,1,1,3.72,0A2.63,2.63,0,0,1,44.58,50.53Zm2.66-2.66a1.13,1.13,0,1,0,0,1.6A1.14,1.14,0,0,0,47.24,47.87Z"/>
      <path d="M5.72,48.05a2.63,2.63,0,1,1,3.72,0A2.63,2.63,0,0,1,5.72,48.05Zm2.66-2.66a1.13,1.13,0,1,0,0,1.6A1.14,1.14,0,0,0,8.38,45.39Z"/>
      <g>
        <path class="cls-1" d="M28.21,28a7.64,7.64,0,1,1,7.64-7.63A7.64,7.64,0,0,1,28.21,28Zm0-13.77a6.14,6.14,0,1,0,6.14,6.14A6.14,6.14,0,0,0,28.21,14.18Z"/>
        <path class="cls-1" d="M28.18,43.71a14.33,14.33,0,0,1-8.63-2.86c-.51-.42-1-.83-1.46-1.27a12.93,12.93,0,0,1-1.46-1.65,14.78,14.78,0,0,1-.86-1.28,1.41,1.41,0,0,1,0-1.28A7.69,7.69,0,0,1,16.47,34,9.26,9.26,0,0,1,22.91,30a1.84,1.84,0,0,1,1.42.36,6.7,6.7,0,0,0,7.77,0A2,2,0,0,1,33.49,30,9.39,9.39,0,0,1,40,34a7.35,7.35,0,0,1,.76,1.39,1.28,1.28,0,0,1-.15,1.29,12.57,12.57,0,0,1-.85,1.24,15.16,15.16,0,0,1-1.44,1.64,14.7,14.7,0,0,1-1.47,1.27A14.29,14.29,0,0,1,28.18,43.71ZM17.11,36A10.39,10.39,0,0,0,17.84,37a11.41,11.41,0,0,0,1.29,1.47,16.91,16.91,0,0,0,1.34,1.16,12.94,12.94,0,0,0,15.44,0,14,14,0,0,0,1.31-1.13A15.25,15.25,0,0,0,38.53,37a10.67,10.67,0,0,0,.76-1.13h0a5.13,5.13,0,0,0-.58-1,7.84,7.84,0,0,0-5.41-3.41.49.49,0,0,0-.32.07,8.09,8.09,0,0,1-9.55,0,.39.39,0,0,0-.28-.08,7.77,7.77,0,0,0-5.45,3.41A6.77,6.77,0,0,0,17.11,36Zm0,0Z"/>
      </g>
    </g>
  </g>
</svg>
