<svg xmlns="http://www.w3.org/2000/svg" viewBox="0 0 410 394.38">
  <defs>
    <style>
      .cls-1 {
        fill: #ffcb2a;
      }
    </style>
  </defs>
  <g id="Слой_2" data-name="Слой 2">
    <g id="Capa_1" data-name="Capa 1">
      <path d="M43.08,61.59a5,5,0,0,0,5-5v-.15a5,5,0,0,0-10,0v.15A5,5,0,0,0,43.08,61.59Z"/>
      <path d="M62.41,61.59a5,5,0,0,0,5-5v-.15a5,5,0,0,0-10,0v.15A5,5,0,0,0,62.41,61.59Z"/>
      <path d="M81.73,61.59a5,5,0,0,0,5-5v-.15a5,5,0,0,0-10,0v.15A5,5,0,0,0,81.73,61.59Z"/>
      <path d="M390,27.43H276.67v10H390a10,10,0,0,1,10,10V75.6H320.25v10H400V261.29H10V85.6H89.75v-10H10V47.43a10,10,0,0,1,10-10H134v-10H20a20,20,0,0,0-20,20V301.68a20,20,0,0,0,20,20H160.21l-15.82,62.7H129.07a5,5,0,0,0,0,10H280.93a5,5,0,0,0,0-10H265.6l-15.82-62.7H390a20,20,0,0,0,20-20V47.43A20,20,0,0,0,390,27.43Zm-134.71,357H154.71l15.82-62.7h68.94ZM400,301.68a10,10,0,0,1-10,10H20a10,10,0,0,1-10-10V271.29H400Z"/>
      <path class="cls-1" d="M205,156a84.53,84.53,0,0,1-60.51-25.5A84.93,84.93,0,0,1,153.31,3a14.26,14.26,0,0,1,22.95,11.29v34.5A5.76,5.76,0,0,0,182,54.5h46a5.76,5.76,0,0,0,5.75-5.75V14.25A14.13,14.13,0,0,1,241.65,1.5,14.28,14.28,0,0,1,256.72,3,85.25,85.25,0,0,1,205,156ZM162,8.5a5.74,5.74,0,0,0-3.52,1.22,76.42,76.42,0,0,0-7.93,114.81,76.1,76.1,0,0,0,54.46,23A76.75,76.75,0,0,0,251.56,9.73a5.76,5.76,0,0,0-6.15-.61,5.62,5.62,0,0,0-3.17,5.13v34.5A14.26,14.26,0,0,1,228,63H182a14.26,14.26,0,0,1-14.25-14.25V14.25a5.63,5.63,0,0,0-3.18-5.14A5.89,5.89,0,0,0,162,8.5Z"/>
      <polygon class="cls-1" points="180.75 253.1 180.75 220.79 180.75 156 229.25 156 229.25 220.79 237.75 220.79 237.75 147.5 172.25 147.5 172.25 261.6 180.75 261.6 180.75 253.1"/>
    </g>
  </g>
</svg>
