<svg xmlns="http://www.w3.org/2000/svg" viewBox="0 0 461.98 390.69">
  <defs>
    <style>
      .cls-1 {
        fill: #ffcb2a;
      }
    </style>
  </defs>
  <g id="Слой_2" data-name="Слой 2">
    <g id="Режим_изоляции" data-name="Режим изоляции">
      <path d="M446.93,335.48H432.08a.05.05,0,0,1-.05-.05V114.48a22.26,22.26,0,0,0-22.26-22.26H361.66A5.67,5.67,0,0,0,356,97.89h0a4.33,4.33,0,0,0,4.33,4.33h49.45A12.26,12.26,0,0,1,422,114.48v226a5.06,5.06,0,0,0,5.05,5.05h19.85a5,5,0,0,1,5.05,5v25.11a5,5,0,0,1-5.05,5.05H15.05A5,5,0,0,1,10,375.64V350.53a5,5,0,0,1,5.05-5H151l0,0,12.85,14.84a5.05,5.05,0,0,0,3.81,1.74H294.3a5.05,5.05,0,0,0,3.81-1.74L311,345.5l0,0h85.17a5.17,5.17,0,0,0,5.24-4.55,5,5,0,0,0-5-5.45H311a10.07,10.07,0,0,0-7.6,3.47l-11.35,13.11,0,0H170l0,0-11.36-13.12a10,10,0,0,0-7.57-3.46H40a0,0,0,0,1,0-.05V114.48a12.25,12.25,0,0,1,12.26-12.26h49.1a5.17,5.17,0,0,0,5.24-4.55,5,5,0,0,0-5-5.45H52.21A22.26,22.26,0,0,0,30,114.48v221a.05.05,0,0,1-.05.05H15.05a15.05,15.05,0,0,0-15,15v25.11a15.05,15.05,0,0,0,15.05,15.05H446.93A15.05,15.05,0,0,0,462,375.64V350.53A15.05,15.05,0,0,0,446.93,335.48Z"/>
      <path class="cls-1" d="M325.32,85.36,361,70.79a10,10,0,0,0,0-18.52L234.77.75a9.9,9.9,0,0,0-7.56,0L100.94,52.27a10,10,0,0,0,0,18.52l35.73,14.57v80.92a10,10,0,0,0,6.22,9.26L227.21,210a10,10,0,0,0,7.56,0L287,188.64v18.3a24.25,24.25,0,0,0-13.51,39.42,22.41,22.41,0,0,0-4.05,12.84v29a10,10,0,0,0,10,10h25.12a10,10,0,0,0,10-10v-29a22.36,22.36,0,0,0-4-12.85A24.25,24.25,0,0,0,297,206.94V184.56l22.1-9a10,10,0,0,0,6.23-9.26V102.22h0v-10h0ZM231,200.68l-84.33-34.4V89.44l80.55,32.86a9.9,9.9,0,0,0,7.56,0L287,101v76.84Zm67.67,87.55v-15a5,5,0,0,0-10,0v15h-9.23v-29a12.45,12.45,0,0,1,1.95-6.69,24.22,24.22,0,0,0,21.21,0,12.4,12.4,0,0,1,2,6.68v29Zm7.6-57.54A14.27,14.27,0,1,1,292,216.42,14.28,14.28,0,0,1,306.26,230.69Zm9.06-64.41L297,173.76V96.92l18.33-7.48ZM289.94,89,219.5,58a5,5,0,0,0-4,9.15l61.59,27.13L231,113.05,104.72,61.52,231,10,357.27,61.52Z"/>
    </g>
  </g>
</svg>
