<svg xmlns="http://www.w3.org/2000/svg" viewBox="0 0 619.05 149.19">
  <defs>
    <style>
      .cls-1 {
        fill: #fff;
      }
    </style>
  </defs>
  <g id="Слой_2" data-name="Слой 2">
    <g id="Слой_1-2" data-name="Слой 1">
      <g>
        <path d="M128.32,0c-2.44,0-4.42,2.31-8.75,7.37-6.65,7.78-17.8,20.8-29.35,20.8H44.75c-11.56,0-22.7-13-29.35-20.8C11.06,2.31,9.09,0,6.65,0,2,0,.12,4,0,6.71V149.19H135V6.6C134.84,4,133,0,128.32,0Z"/>
        <path class="cls-1" d="M129.56,128.88,67.73,139a2.33,2.33,0,0,1-.79,0L5.4,128.88V6.4Q5.48,5.24,6.14,5a57.8,57.8,0,0,1,4.93,5.37c7.29,8.51,19.48,22.76,33.64,22.76H90.26c14.15,0,26.35-14.25,33.64-22.76A59.14,59.14,0,0,1,128.83,5a1.39,1.39,0,0,1,.73,1.26Z"/>
        <path d="M78.84,86.65H55.49a2.32,2.32,0,0,0-1.6,3.95l9.66,9.86a5,5,0,0,0,7.23,0l9.66-9.86A2.32,2.32,0,0,0,78.84,86.65Z"/>
      </g>
      <g>
        <g>
          <path d="M185,31.88V59.37l24.76-27.49h15.75L202.07,58,227.27,95H211.52L193.05,68l-8.09,9V95H171.41V31.88Z"/>
          <path d="M238.07,86.66a31.26,31.26,0,0,1-9.92-23.24,31.24,31.24,0,0,1,9.92-23.23,35.54,35.54,0,0,1,48.65,0,31.24,31.24,0,0,1,9.92,23.23,31.26,31.26,0,0,1-9.92,23.24,35.46,35.46,0,0,1-48.65,0Zm10-38a20.24,20.24,0,0,0-5.89,14.74A20.13,20.13,0,0,0,248,78.15a20.22,20.22,0,0,0,28.73,0,20.13,20.13,0,0,0,5.89-14.71,20.24,20.24,0,0,0-5.89-14.74,20.2,20.2,0,0,0-28.73,0Z"/>
          <path d="M299.32,31.88h49.53V44.06h-18V95H317.35V44.06h-18Z"/>
          <path d="M415.05,95H401.54V54.89L370.49,95H358.75V31.88h13.54V72l31.06-40.12h11.7Z"/>
          <path d="M444.78,31.88V59.37l24.77-27.49h15.74L461.89,58,487.1,95H471.35L452.88,68l-8.1,9V95H431.23V31.88Z"/>
          <path d="M497.89,86.66A31.25,31.25,0,0,1,488,63.42a31.23,31.23,0,0,1,9.91-23.23,35.54,35.54,0,0,1,48.65,0,31.24,31.24,0,0,1,9.92,23.23,31.26,31.26,0,0,1-9.92,23.24,35.46,35.46,0,0,1-48.65,0Zm10-38A20.25,20.25,0,0,0,502,63.44a20.14,20.14,0,0,0,5.9,14.71,20.21,20.21,0,0,0,28.72,0,20.13,20.13,0,0,0,5.89-14.71,20.24,20.24,0,0,0-5.89-14.74,20.18,20.18,0,0,0-28.72,0Z"/>
          <path d="M597.63,95H569V31.88h27.05q8.58,0,14.19,5t5.6,11.66a16,16,0,0,1-.7,4.77,12.65,12.65,0,0,1-1.8,3.76,23,23,0,0,1-2.18,2.58,10.71,10.71,0,0,1-1.78,1.51l-.75.44c.29.12.67.29,1.12.51a20.05,20.05,0,0,1,2.49,1.63,18.46,18.46,0,0,1,3.16,2.84,15.11,15.11,0,0,1,2.49,4.2,14.44,14.44,0,0,1,1.12,5.69,17,17,0,0,1-6,13Q607,95,597.63,95Zm-2.46-51.82H582.59V56.69h12.58a7.34,7.34,0,0,0,5.28-1.85,6.48,6.48,0,0,0,1.93-4.93A6.48,6.48,0,0,0,600.45,45,7.34,7.34,0,0,0,595.17,43.14ZM582.59,83.7H597a8.57,8.57,0,0,0,6.14-2.33,8.05,8.05,0,0,0,0-11.55A8.5,8.5,0,0,0,597,67.47H582.59Z"/>
        </g>
        <g>
          <path d="M176.55,143.88A17.62,17.62,0,0,1,194,114.52a15.33,15.33,0,0,1,3.95,1.75,24,24,0,0,1,2.75,2.08,11.16,11.16,0,0,1,1.71,1.8l.55.74-2.46,2.2c-.1-.16-.24-.37-.43-.64a13.83,13.83,0,0,0-1.34-1.4,14.56,14.56,0,0,0-2.28-1.78,15.15,15.15,0,0,0-3.24-1.42,13.72,13.72,0,0,0-4.21-.64,13.41,13.41,0,0,0-9.92,4.08,14.68,14.68,0,0,0,0,20.23,13.42,13.42,0,0,0,9.92,4.09,14.68,14.68,0,0,0,4.21-.61,13.45,13.45,0,0,0,3.33-1.47,24.38,24.38,0,0,0,2.33-1.71,8,8,0,0,0,1.44-1.5l.45-.6,2.44,2.23a8.31,8.31,0,0,1-.59.75,23,23,0,0,1-1.74,1.69,20.51,20.51,0,0,1-2.86,2.17,16.16,16.16,0,0,1-4,1.71,17.55,17.55,0,0,1-17.53-4.39Z"/>
          <path d="M237.25,118.93a17.72,17.72,0,1,1-12.48-5.14A17,17,0,0,1,237.25,118.93Zm-22.4,2.36a14.68,14.68,0,0,0,0,20.23,14.08,14.08,0,0,0,19.84,0,14.68,14.68,0,0,0,0-20.23,14.1,14.1,0,0,0-19.84,0Z"/>
          <path d="M274.71,114.26h3.66v34.29h-3.18l-21-27.66v27.66h-3.68V114.26h3.18L274.71,142Z"/>
          <path d="M305.05,139.25a4.57,4.57,0,0,0-1-3,6.93,6.93,0,0,0-2.66-1.93,32.58,32.58,0,0,0-3.63-1.26c-1.32-.37-2.64-.79-4-1.24a19.08,19.08,0,0,1-3.62-1.66,7.46,7.46,0,0,1-2.66-2.77,8.93,8.93,0,0,1,2-10.87,11.55,11.55,0,0,1,8-2.71,13.29,13.29,0,0,1,3.55.46,12.76,12.76,0,0,1,2.81,1.1,22,22,0,0,1,2,1.27,6.53,6.53,0,0,1,1.26,1.09l.41.47-2.46,2.47a4.43,4.43,0,0,0-.29-.37,9.6,9.6,0,0,0-.91-.82,11.4,11.4,0,0,0-1.52-1,8.91,8.91,0,0,0-2.12-.83,10.06,10.06,0,0,0-2.74-.37,7.93,7.93,0,0,0-5.37,1.72,5.29,5.29,0,0,0-2,4.16,4.59,4.59,0,0,0,1,3,7,7,0,0,0,2.68,1.94,30.88,30.88,0,0,0,3.64,1.25c1.32.37,2.64.79,3.95,1.24a20,20,0,0,1,3.62,1.66A7.51,7.51,0,0,1,307.7,135a8.36,8.36,0,0,1,1,4.29,9,9,0,0,1-3.06,7.06q-3.06,2.72-8.46,2.72a15.93,15.93,0,0,1-4.19-.54,13.85,13.85,0,0,1-3.25-1.27,19.53,19.53,0,0,1-2.25-1.5,7.2,7.2,0,0,1-1.36-1.29l-.45-.55L288,141.4a5,5,0,0,0,.34.44,12.38,12.38,0,0,0,1.09,1,10.65,10.65,0,0,0,1.8,1.27,13.13,13.13,0,0,0,2.62,1,12.46,12.46,0,0,0,3.4.47,8.64,8.64,0,0,0,5.81-1.76A5.81,5.81,0,0,0,305.05,139.25Z"/>
          <path d="M322.5,142.55a10.15,10.15,0,0,0,14.53,0,10.24,10.24,0,0,0,3-7.46V114.26h3.68v20.83a14,14,0,0,1-27.9,0V114.26h3.66v20.83A10.23,10.23,0,0,0,322.5,142.55Z"/>
          <path d="M374.81,148.55h-21.3V114.26h3.68v30.87h17.62Z"/>
          <path d="M373.8,114.26H399v3.45H388.24v30.84h-3.66V117.71H373.8Z"/>
          <path d="M405.12,148.55V114.26h3.68v34.29Z"/>
          <path d="M443.3,114.26H447v34.29h-3.18l-21-27.66v27.66h-3.68V114.26h3.18L443.3,142Z"/>
          <path d="M460.18,143.88a17.62,17.62,0,0,1,17.47-29.36,15.26,15.26,0,0,1,4,1.75,24.94,24.94,0,0,1,2.75,2.08,11.16,11.16,0,0,1,1.71,1.8l.55.74-2.46,2.2c-.1-.16-.24-.37-.43-.64a16.52,16.52,0,0,0-3.63-3.18,14.71,14.71,0,0,0-3.24-1.42,13.66,13.66,0,0,0-4.2-.64,13.41,13.41,0,0,0-9.92,4.08,14.66,14.66,0,0,0,0,20.23,13.42,13.42,0,0,0,9.92,4.09,15.71,15.71,0,0,0,3.92-.49,13.24,13.24,0,0,0,3.06-1.17c.79-.46,1.5-.91,2.1-1.34a6.21,6.21,0,0,0,1.29-1.16l.41-.48v-6.62H475.6v-3.42h11.5v11a9.29,9.29,0,0,1-.61.75c-.28.31-.88.87-1.78,1.69a20,20,0,0,1-2.93,2.17,19,19,0,0,1-9.12,2.47A17,17,0,0,1,460.18,143.88Z"/>
        </g>
      </g>
    </g>
  </g>
</svg>
